<?xml version="1.0" encoding="UTF-8" standalone="no"?> <svg xmlns="http://www.w3.org/2000/svg" xmlns:xlink="http://www.w3.org/1999/xlink" xmlns:serif="http://www.serif.com/" width="100%" height="100%" viewBox="0 0 4126 1355" version="1.1" xml:space="preserve" style="fill-rule:evenodd;clip-rule:evenodd;stroke-linecap:round;stroke-miterlimit:1.5;"> <g transform="matrix(0.985456,0,0,0.986445,15.8317,16.3415)"> <rect x="88.876" y="135.28" width="999.656" height="1070.29" style="fill:white;stroke:rgb(17,53,105);stroke-width:12.68px;"></rect> </g> <g> <g transform="matrix(11.2794,0,0,11.2794,117.923,166.413)"> <path d="M95.6,47.2L95.6,6L107.5,6C112.2,6 115.5,6.2 117.3,6.5C123.6,7.5 126.8,10.7 126.8,16C126.8,20.9 123.8,24.3 118.1,25.3C124.3,25.8 128.8,29.4 128.8,34.9C128.8,41.7 124.6,45.6 116.3,46.7C113.3,47.1 109.8,47.2 106,47.2L95.6,47.2ZM104.3,22.7L106.2,22.7C109.4,22.7 111.7,22.5 113.1,22.2C116.2,21.5 117.7,19.9 117.7,17.4C117.7,15.1 116.5,13.6 114.1,12.9C113,12.6 111.2,12.4 108.5,12.4L104.3,12.4L104.3,22.7ZM104.3,29.2L104.3,40.7L107.4,40.7C110.5,40.7 112.9,40.6 114.4,40.3C117.7,39.6 119.3,37.8 119.3,34.7C119.3,31.6 117.3,29.9 113.4,29.5C112,29.3 109.8,29.3 106.6,29.3L104.3,29.3L104.3,29.2Z" style="fill:white;fill-rule:nonzero;"></path> </g> <g transform="matrix(11.2794,0,0,11.2794,117.923,166.413)"> <path d="M144.4,47.2L135.9,47.2L135.9,17.2L144.1,16.1L144.1,23.5C145.1,19 148.9,15.9 153.5,15.9C154.2,15.9 154.7,16 155.1,16L156.1,22.7C155.5,22.6 154.7,22.5 153.5,22.5C149.9,22.5 147.4,23.7 145.9,26C144.9,27.5 144.4,29.7 144.4,32.6L144.4,47.2Z" style="fill:white;fill-rule:nonzero;"></path> </g> <g transform="matrix(11.2794,0,0,11.2794,117.923,166.413)"> <path d="M184.5,47.2L176.7,47.2L176.7,42.1C175.1,45.9 171.8,47.9 166.9,47.9C163.7,47.9 161.2,47 159.3,45.3C157.5,43.5 156.6,41.4 156.6,38.9C156.6,34.4 158.6,31.5 162.7,29.9C165,29.1 167.9,28.7 171.4,28.7C173.6,28.7 175.2,28.8 176.3,28.9L176.3,28.3C176.3,26.2 175.8,24.6 174.7,23.7C173.5,22.6 171.1,22.1 167.7,22.1C165.2,22.1 162.7,22.3 160.5,22.9L161.7,16.9C164.6,16.3 167.3,16 170,16C175.4,16 179.3,17.1 181.4,19.3C183.5,21.3 184.5,24.7 184.5,29.7L184.5,47.2ZM176.4,33.5C175,33.3 173.9,33.3 172.9,33.3C170.4,33.3 168.5,33.5 167.2,34C165.3,34.7 164.3,36.1 164.3,38C164.3,40.6 166.5,42.1 169.4,42.1C172.5,42.1 174.6,40.9 175.7,38.6C176.2,37.7 176.4,36.4 176.4,34.8L176.4,33.5Z" style="fill:white;fill-rule:nonzero;"></path> </g> <g transform="matrix(11.2794,0,0,11.2794,117.923,166.413)"> <path d="M210.1,47.2L200.5,47.2L188.6,16.6L197.7,16.6C201.7,27.7 204.3,35.3 205.5,39.5C207,34.6 209.7,27 213.5,16.6L222.2,16.6L210.1,47.2Z" style="fill:white;fill-rule:nonzero;"></path> </g> <g transform="matrix(11.2794,0,0,11.2794,117.923,166.413)"> <path d="M240.4,48C235.4,48 231.5,46.6 228.5,43.7C225.6,40.8 224.1,37.1 224.1,32.5C224.1,22.3 230.4,15.9 241.4,15.9C246.4,15.9 250.2,17.3 253,20.1C255.8,22.9 257.2,26.6 257.2,31.1C257.2,41.4 251.3,48 240.4,48ZM240.8,22C235.5,22 232.7,25.8 232.7,31.6C232.7,39 235.6,41.8 240.7,41.8C245.6,41.8 248.5,38.4 248.5,32C248.6,25.4 246.5,22 240.8,22Z" style="fill:white;fill-rule:nonzero;"></path> </g> <g transform="matrix(11.2794,0,0,11.2794,117.923,166.413)"> <path d="M96,79.1C98.1,79.9 100.2,80.3 102.4,80.3C105.4,80.3 107.3,79 107.3,76.9C107.3,75.2 106.4,74.3 103.3,73L100.9,72C98.2,70.9 96.9,69.2 96.9,66.8C96.9,63.6 99.6,61.3 104.3,61.3C105.9,61.3 107.4,61.5 108.6,61.9L108.9,64C107.5,63.6 105.9,63.3 104.1,63.3C100.8,63.3 99.3,64.7 99.3,66.6C99.3,68.3 100.1,69.1 102.7,70.2L105.5,71.3C108.4,72.5 109.9,74.1 109.9,76.5C109.9,80 107.2,82.3 102.6,82.3C100.2,82.3 98.2,81.9 96.5,81.3L96,79.1Z" style="fill:white;fill-rule:nonzero;"></path> </g> <g transform="matrix(11.2794,0,0,11.2794,117.923,166.413)"> <path d="M115.8,82L113.5,82L113.5,60.7L115.7,60.4L115.7,70.2C116.5,68.2 118.7,66.7 121.4,66.7C123.8,66.7 125.3,67.5 126.1,69.2C126.4,70 126.6,71.2 126.6,72.9L126.6,81.9L124.4,81.9L124.4,73C124.4,71.4 124.1,70.3 123.7,69.6C123.2,68.8 122.3,68.5 120.9,68.5C118.7,68.5 117.2,69.4 116.3,71.1C116,71.8 115.8,72.7 115.8,73.9L115.8,82Z" style="fill:white;fill-rule:nonzero;"></path> </g> <g transform="matrix(11.2794,0,0,11.2794,117.923,166.413)"> <path d="M131.2,62.8C131.2,61.9 131.9,61.4 132.7,61.4C133.5,61.4 134.2,61.9 134.2,62.8C134.2,63.7 133.5,64.2 132.7,64.2C131.9,64.2 131.2,63.6 131.2,62.8ZM133.8,82L131.6,82L131.6,67.3L133.8,67L133.8,82Z" style="fill:white;fill-rule:nonzero;"></path> </g> <g transform="matrix(11.2794,0,0,11.2794,117.923,166.413)"> <path d="M141.2,88.6L139,88.6L139,67.3L141.2,67L141.2,70.3C142.1,68.3 144.3,66.8 147.2,66.8C150.8,66.8 153.4,69.4 153.4,74.2C153.4,76.9 152.7,79 151.3,80.3C150,81.6 148.3,82.3 146.4,82.3C144,82.3 142.3,81.5 141.2,80L141.2,88.6ZM141.2,75.3C141.2,76.8 141.4,77.8 141.7,78.4C142.5,79.9 144,80.6 146.1,80.6C149,80.6 151.1,78.5 151.1,74.4C151.1,70.6 149.5,68.5 146.4,68.5C143.9,68.5 142.3,69.9 141.7,71.6C141.4,72.4 141.3,73.2 141.3,73.9L141.3,75.3L141.2,75.3Z" style="fill:white;fill-rule:nonzero;"></path> </g> <g transform="matrix(11.2794,0,0,11.2794,117.923,166.413)"> <path d="M164.2,82L164.4,61.7L167.5,61.7C171.1,69.2 173.6,74.3 174.8,77.2C175.9,74.7 178.3,69.6 182,61.7L185,61.7L185.2,82L182.9,82C182.8,74.4 182.8,68.6 182.8,64.5C181.7,67 179.3,72.2 175.5,80.2L174,80.2L166.6,64.4L166.6,82L164.2,82Z" style="fill:white;fill-rule:nonzero;"></path> </g> <g transform="matrix(11.2794,0,0,11.2794,117.923,166.413)"> <path d="M201.5,82L199.4,82L199.4,79.3C198.6,81.2 196.6,82.3 194.2,82.3C191.1,82.3 189.3,80.3 189.3,77.9C189.3,75.8 190.3,74.4 192.3,73.7C193.4,73.3 194.9,73.1 196.6,73.1C197.7,73.1 198.6,73.2 199.3,73.3L199.3,72.7C199.3,71.2 198.9,70.1 198.2,69.4C197.5,68.8 196.3,68.5 194.8,68.5C193.4,68.5 192.1,68.7 191.1,69L191.5,67.2C192.6,66.9 193.8,66.7 195,66.7C197.3,66.7 199,67.2 200,68.1C201,69.1 201.5,70.7 201.5,73L201.5,82ZM199.4,74.8C198.6,74.7 197.9,74.7 197.2,74.7C195.5,74.7 194.2,74.9 193.3,75.2C192.1,75.7 191.5,76.5 191.5,77.8C191.5,79.6 192.8,80.7 194.8,80.7C196.9,80.7 198.3,79.7 199,78.3C199.3,77.7 199.4,76.9 199.4,75.9L199.4,74.8Z" style="fill:white;fill-rule:nonzero;"></path> </g> <g transform="matrix(11.2794,0,0,11.2794,117.923,166.413)"> <path d="M208.7,82L206.5,82L206.5,67.3L208.7,67L208.7,70.4C209.4,68.3 211.7,66.8 214.5,66.8C216.8,66.8 218.3,67.6 219.1,69.3C219.4,70 219.6,71.3 219.6,73.1L219.6,82L217.4,82L217.4,73.1C217.4,71.7 217.2,70.7 216.9,70.1C216.4,69.1 215.4,68.6 213.8,68.6C211.7,68.6 210.2,69.5 209.2,71.2C208.9,71.8 208.7,72.7 208.7,74L208.7,82Z" style="fill:white;fill-rule:nonzero;"></path> </g> <g transform="matrix(11.2794,0,0,11.2794,117.923,166.413)"> <path d="M235.6,82L233.5,82L233.5,79.3C232.7,81.2 230.7,82.3 228.3,82.3C225.2,82.3 223.4,80.3 223.4,77.9C223.4,75.8 224.4,74.4 226.4,73.7C227.5,73.3 229,73.1 230.7,73.1C231.8,73.1 232.7,73.2 233.4,73.3L233.4,72.7C233.4,71.2 233,70.1 232.3,69.4C231.6,68.8 230.4,68.5 228.9,68.5C227.5,68.5 226.2,68.7 225.2,69L225.6,67.2C226.7,66.9 227.9,66.7 229.1,66.7C231.4,66.7 233.1,67.2 234.1,68.1C235.1,69.1 235.6,70.7 235.6,73L235.6,82ZM233.5,74.8C232.7,74.7 232,74.7 231.3,74.7C229.6,74.7 228.3,74.9 227.4,75.2C226.2,75.7 225.6,76.5 225.6,77.8C225.6,79.6 226.9,80.7 228.9,80.7C231,80.7 232.4,79.7 233.1,78.3C233.4,77.7 233.5,76.9 233.5,75.9L233.5,74.8Z" style="fill:white;fill-rule:nonzero;"></path> </g> <g transform="matrix(11.2794,0,0,11.2794,117.923,166.413)"> <path d="M241.4,86.9C242.2,87.1 243.3,87.1 244.6,87.1C247.8,87.1 249.9,86.1 250.8,83.9C251.2,82.9 251.4,81.5 251.4,79.7L251.4,78.8C250.3,81 248.4,82 245.8,82C241.9,82 239.3,79.3 239.3,74.6C239.3,72 240,70 241.4,68.7C242.8,67.4 244.4,66.7 246.4,66.7C248.9,66.7 250.7,67.5 251.6,69.1L251.6,67L253.7,67L253.7,78.8C253.7,81.3 253.4,83.2 252.9,84.5C251.6,87.4 248.9,88.8 244.6,88.8C243.4,88.8 242.4,88.7 241.6,88.5L241.4,86.9ZM251.5,73.2C251.5,72.2 251.3,71.3 251,70.6C250.3,69.2 248.9,68.5 246.9,68.5C243.9,68.5 241.7,70.8 241.7,74.5C241.7,78.5 243.7,80.4 246.5,80.4C249.2,80.4 250.7,78.8 251.2,77.2C251.5,76.4 251.6,75.4 251.6,74.3L251.6,73.2L251.5,73.2Z" style="fill:white;fill-rule:nonzero;"></path> </g> <g transform="matrix(11.2794,0,0,11.2794,117.923,166.413)"> <path d="M270.1,81.7C269,82.1 267.6,82.3 265.8,82.3C260.6,82.3 257.5,79.3 257.5,74.5C257.5,72 258.2,70 259.5,68.7C260.8,67.4 262.5,66.7 264.6,66.7C268.8,66.7 270.9,68.9 271,73.2C271,73.8 271,74.3 270.9,74.8L259.7,74.8C259.8,78.4 262.4,80.5 266.1,80.5C267.7,80.5 269.1,80.3 270.3,79.9L270.1,81.7ZM268.8,73.3L268.8,72.5C268.7,69.8 267.3,68.5 264.7,68.5C262.1,68.5 260.1,70.1 259.8,73.3L268.8,73.3Z" style="fill:white;fill-rule:nonzero;"></path> </g> <g transform="matrix(11.2794,0,0,11.2794,117.923,166.413)"> <path d="M277.2,82L274.9,82L274.9,67.3L277.1,67L277.1,70.3C277.9,68.2 280.1,66.8 282.8,66.8C285.5,66.8 287.1,68 287.5,70.4C288.3,68.3 290.5,66.8 293.3,66.8C295.6,66.8 297.1,67.7 297.8,69.5C298.1,70.1 298.2,71.4 298.2,73.3L298.2,82L296,82L296,73.1C296,71.5 295.8,70.3 295.3,69.7C294.8,68.9 293.9,68.6 292.6,68.6C290.5,68.6 289,69.5 288.2,71.2C287.9,71.8 287.7,72.7 287.7,74.1L287.7,82L285.5,82L285.5,73.1C285.5,71.5 285.3,70.4 284.8,69.7C284.3,68.9 283.4,68.6 282.1,68.6C280,68.6 278.5,69.5 277.7,71.2C277.4,71.8 277.2,72.8 277.2,74L277.2,82Z" style="fill:white;fill-rule:nonzero;"></path> </g> <g transform="matrix(11.2794,0,0,11.2794,117.923,166.413)"> <path d="M314.5,81.7C313.4,82.1 312,82.3 310.2,82.3C305,82.3 301.9,79.3 301.9,74.5C301.9,72 302.6,70 303.9,68.7C305.2,67.4 306.9,66.7 309,66.7C313.2,66.7 315.3,68.9 315.4,73.2C315.4,73.8 315.4,74.3 315.3,74.8L304.1,74.8C304.2,78.4 306.8,80.5 310.5,80.5C312.1,80.5 313.5,80.3 314.7,79.9L314.5,81.7ZM313.2,73.3L313.2,72.5C313.1,69.8 311.7,68.5 309.1,68.5C306.5,68.5 304.5,70.1 304.2,73.3L313.2,73.3Z" style="fill:white;fill-rule:nonzero;"></path> </g> <g transform="matrix(11.2794,0,0,11.2794,117.923,166.413)"> <path d="M321.5,82L319.3,82L319.3,67.3L321.5,67L321.5,70.4C322.2,68.3 324.5,66.8 327.3,66.8C329.6,66.8 331.1,67.6 331.9,69.3C332.2,70 332.4,71.3 332.4,73.1L332.4,82L330.2,82L330.2,73.1C330.2,71.7 330,70.7 329.7,70.1C329.2,69.1 328.2,68.6 326.6,68.6C324.5,68.6 323,69.5 322,71.2C321.7,71.8 321.5,72.7 321.5,74L321.5,82Z" style="fill:white;fill-rule:nonzero;"></path> </g> <g transform="matrix(11.2794,0,0,11.2794,117.923,166.413)"> <path d="M344.8,82.1C344.2,82.3 343.4,82.3 342.5,82.3C340.8,82.3 339.5,81.7 338.8,80.6C338.4,79.8 338.2,78.6 338.2,76.7L338.2,68.7L335.7,68.7L335.7,67L338.2,67C338.3,66.2 338.3,65 338.3,63.3L340.4,62.9L340.4,67L344.6,67L344.6,68.7L340.4,68.7L340.4,76.6C340.4,78.1 340.6,79.1 341,79.6C341.4,80.2 342.2,80.4 343.2,80.4C343.9,80.4 344.5,80.3 345.1,80.2L344.8,82.1Z" style="fill:white;fill-rule:nonzero;"></path> </g> <g transform="matrix(11.2794,0,0,11.2794,117.923,166.413)"> <rect x="2.4" y="2.4" width="8.6" height="86.5" style="fill:rgb(96,96,98);"></rect> </g> <g transform="matrix(11.2794,0,0,11.2794,117.923,166.413)"> <path d="M38.9,81.6C50.7,81.6 58.9,73.2 58.9,56.6C58.9,41.4 52.4,33.2 40.2,33.2C30,33.2 23.7,38.8 21.1,45.2C20.5,46.7 20.1,48.4 19.8,50.3L19.8,65.9C20.1,68.8 20.6,71 21.3,72.4C24,77.7 29.8,81.6 38.9,81.6Z" style="fill:rgb(17,53,105);fill-rule:nonzero;"></path> </g> <g transform="matrix(11.2794,0,0,11.2794,117.923,166.413)"> <path d="M19.8,2.1L19.8,39.2C23.4,31.5 32.1,26.2 43.2,26.2C57.5,26.1 68,36.5 68,55.8C68,66.9 65.3,75 60,80.4C54.8,85.7 48.2,88.3 40.6,88.3C30.8,88.3 23.9,85.4 19.9,79.5L19.9,88.6L82.7,88.6L82.7,2.1L19.8,2.1Z" style="fill:rgb(17,53,105);fill-rule:nonzero;"></path> </g> </g> </svg> 