<svg xmlns="http://www.w3.org/2000/svg" fill="none" viewBox="0 0 338 61"><g fill="#0b295e" clip-path="url(#a)"><path d="M0 48.721v-7.895s19.042.472 36.817-5.052c19.2-5.96 25.918-11.774 28.627-13.986 2.794-2.283 4.712-3.943 7.333-7.447 0 0 1.574-2.591 2.444-2.591 1.397 0 .391 3.288.391 3.288s-2.355 7.232-7.896 12.316c-4.953 4.547-11.918 12.536-39.102 18.767C19.6 48.184 13.948 48.717 0 48.717"/><path d="M0 36.967V29.08s19.042.468 36.817-5.051c19.2-5.964 25.918-11.778 28.627-13.991 2.794-2.283 4.712-3.938 7.333-7.442 0 0 1.569-2.596 2.444-2.596 1.397 0 .391 3.288.391 3.288s-2.355 7.232-7.896 12.321c-4.953 4.542-11.918 12.54-39.102 18.766C19.6 36.443 13.948 36.967 0 36.967Zm0 24.036v-7.896s19.042.468 36.817-5.047c19.2-5.964 25.918-11.778 28.627-13.99 2.794-2.279 4.712-3.944 7.333-7.447 0 0 1.574-2.592 2.444-2.592 1.397 0 .391 3.289.391 3.289s-2.355 7.236-7.896 12.316c-4.953 4.541-11.918 12.54-39.102 18.766C19.6 60.46 13.948 60.998 0 60.998m89.342-32.149c-2.929-1.993-4.95-3.452-7.728-6.652 0 0-1.802-2.769-2.584-2.32-1.197.688-.205 2.924-.205 2.924s1.112 5.393 8.338 11.642c2.22 1.913 5.88 4.43 11.453 7.03v-7.516c-5.089-2.19-7.77-4.088-9.27-5.103m-.004-11.318c-2.929-1.992-4.95-3.452-7.728-6.651 0 0-1.802-2.77-2.584-2.32-1.197.692-.205 2.923-.205 2.923s1.112 5.394 8.338 11.638c2.22 1.918 5.88 4.43 11.453 7.035V22.64c-5.089-2.19-7.77-4.088-9.27-5.104m-.004 23.02c-2.929-1.998-4.95-3.452-7.728-6.652 0 0-1.802-2.769-2.584-2.325-1.197.697-.205 2.929-.205 2.929s1.112 5.388 8.338 11.642c2.22 1.913 5.88 4.425 11.453 7.03v-7.516c-5.089-2.19-7.77-4.089-9.27-5.108m36.096-16.106h-8.557v14.4h5.442c10.699 0 14.712-2.994 14.894-7.04v-.225c0-3.742-4.279-7.133-11.775-7.133m-8.557 28.669h-11.508V22.688h22.649c11.067.266 20.341 3.26 20.341 8.985-.452 5.59-5.62 9.028-21.761 9.028-.363 0-.805-.047-1.247-.047h-8.474V53.12Zm80.608-22.458v.308c-.265 4.187-4.195 7.003-15.247 8.369l15.331 13.784h-12.84l-16.947-15.057c7.049 0 18.111-1.099 18.111-6.254v-.444c0-3.606-3.394-6.82-13.292-6.867h-7.221v28.622h-11.416V22.687h24.349c11.681 0 19.172 3.79 19.172 7.971m20.248-7.97h-11.328V53.12h11.328V22.688Zm69.909 0V53.12h-11.318V27.403l-20.801 26.905-20.797-25.853V53.12h-4.442V22.688h11.923l16.886 20.829 16.272-20.83h12.277Zm25.019 2.338V36.3h22.571v2.203h-22.571v12.42H338v2.198h-36.915V22.688H338v2.338h-25.327Z"/></g><defs><clipPath id="a"><path fill="#0b295e" d="M0 0h338v61H0z"/></clipPath></defs></svg>